# Blender 3.5.1
# www.blender.org
mtllib model1.mtl
o bgsun
v 0.055544 1.390025 -0.729504
v 0.055544 1.390025 -1.853708
v 0.055544 2.390025 -0.729504
v 0.055544 2.390025 -1.853708
vn 1.0000 -0.0000 -0.0000
vt 0.000000 0.000000
vt 1.000000 0.000000
vt 0.000000 1.000000
vt 1.000000 1.000000
s 0
usemtl bgsun
f 1/1/1 2/2/1 4/4/1 3/3/1
o tree0
v 0.000000 -2.218982 2.218982
v -0.000000 -2.218982 -2.218982
v 0.000000 2.218982 2.218982
v 0.000000 2.218982 -2.218982
vn 1.0000 -0.0000 -0.0000
vt 0.000000 0.000000
vt 1.000000 0.000000
vt 0.000000 1.000000
vt 1.000000 1.000000
s 0
usemtl tree0
f 5/5/2 6/6/2 8/8/2 7/7/2
